<?xml version="1.0" encoding="utf-8"?>
<!-- Generator: Adobe Illustrator 28.1.0, SVG Export Plug-In . SVG Version: 6.00 Build 0)  -->
<svg version="1.1" id="svg6314" xmlns:svg="http://www.w3.org/2000/svg"
	 xmlns="http://www.w3.org/2000/svg" xmlns:xlink="http://www.w3.org/1999/xlink" x="0px" y="0px" viewBox="0 0 764 768"
	 style="enable-background:new 0 0 764 768;" xml:space="preserve">
<style type="text/css">
	.st0{fill:#F21016;}
	.st1{fill:#FABB15;}
	.st2{font-family:'Poppins-ExtraBold';}
	.st3{font-size:118.609px;}
</style>
<path id="path4038" class="st0" d="M431.4,398.5l-34.9,5.7l0.3,126.6c0.1,28.4,16.7,41.8,44.5,41.7c6.7,0,12.9-1.3,12.9-1.3
	l-0.1-21.1c-0.4-0.1-2.9-0.1-4.9-0.1c-14.7-0.5-17.6-8.5-17.6-17.8l-0.2-71.3l22.4-0.1l-0.1-25l-22.4,0.1L431.4,398.5L431.4,398.5z
	 M647.1,549.3c-14.2-1-17.1-7.2-17.2-17.6l-0.4-134l-34.1,5.9l0.3,126c0.1,29.9,16.3,42.6,43.5,42.5c5.8,0,13-1.4,13-1.4l0-21.4
	C652.3,549.4,649.1,549.5,647.1,549.3 M306.1,460.4l0.3,111.3l34.7-0.1l-0.3-104.8c4.5-4.4,14.1-8.3,23.2-8.7c8.5-0.4,14,1.4,14,1.4
	l9.5-21.6c-3.7-1.8-12.6-4.1-22.9-4.1C349.6,433.9,326.7,438.3,306.1,460.4 M529.5,549.6c-9.3,0-15.7-3-19.8-7.4
	c-6.1-6.6-8.9-20.2-8.2-34.6l73.4-0.2v-3.4c-0.8-48-17.2-69.8-53.1-69.7c-40,0.1-55.5,36.9-55.7,71.5c-0.2,21.8,8.1,43.8,23.3,56.3
	c9.1,7.6,21.9,11.8,36.7,11.7c8.1,0,16.5-1.2,24.1-3.6c14.7-4.6,25.5-12.5,25.5-12.5l-9.7-19.7C564.4,539.2,549.7,549.5,529.5,549.6
	 M521.8,459.5c15.1-0.1,17.4,16.4,17.4,26.6l-36.8,0.1C503,473,508.4,459.5,521.8,459.5 M170.6,434.1c-16.3,0.1-30.8,4.7-45.8,12.2
	l-3.8,1.9l9.2,20.4l5.2-2.5c10.6-4.8,21.9-8,32.1-7.6c12.3,0.5,17.4,6.1,17.4,17.9l0,6.9l-20.2,0.1c-32.4,0.1-52.5,17.3-53,44
	c0.1,25.3,21.3,47.1,50.6,47c23.7-0.1,43.8-7.8,57.3-21.4l-0.2-72.3C219.3,445.5,194.1,434,170.6,434.1 M185,546.4
	c-3.3,2.4-10.2,4.4-17.7,4.4c-13.7,0.1-19.9-10.4-19.7-22.6c0.2-10.2,6.5-21.7,23.6-21.7l13.6-0.1L185,546.4L185,546.4z
	 M245.1,571.8l34-0.1l-0.4-135.5l-34,5.6L245.1,571.8L245.1,571.8z M262,382.1c-12.1,0-21.9,9.8-21.9,21.7
	c0,12.2,9.6,21.7,21.7,21.6c12.1,0,21.6-9.6,21.5-21.6c0.2-5.8-1.9-11.2-5.9-15.3C273.4,384.4,267.9,382.1,262,382.1"/>
<path id="path4042" class="st0" d="M514,92.3c-5.7-18.1-16.7-33-32.7-44.2c-1.9-1.5-21.8-17.4-59.4-17.3
	c-34.3,0.1-72,13.4-111.8,39.7l-1.3,0.8l-0.2,0.1l-3.6,2.2l-3.1,2.1c-8.1,5.5-15.9,11.6-23.2,18c-16.8,16.4-36,43.7-34.7,66.8
	c0.5,9.9,4.6,17.9,12.2,23.8c6.8,5.4,15.4,8,25.3,8c20.5-0.1,42.9-11.2,58.2-20.7l2.9-2c2.7-1.7,5.3-3.5,8-5.4l2.6-1.8
	c21.7-14.7,44.3-29.8,69.6-38.7c6.6-2.3,12.3-3.4,17.6-3.4c2.6,0,5.2,0.3,7.6,0.8c7.7,1.8,13.4,6.1,16.8,13
	c5.9,12,4.6,30.9-3.4,48.3c-10.9,23.6-29.6,47-55.6,69.3c-13.2,11.4-25.5,20.2-36.4,26.1l-1,0.5c-5.1,2.8-10.8,6-16.9,8.3l-0.8,0.3
	c-1.8,0.7-3.3,1.3-4.7,1.8c-16.5,4.5-16.2-3.2-13.7-9.3c1.4-3.3,6-9.1,11.6-14.9c3.1-3.1,6.2-6,9.4-9.1c3.5-3.2,7-6.6,10.6-10.2
	l0.8-0.8c4.4-4.5,10.5-10.6,10.1-19.4c-0.5-11.6-12.4-18.8-23.4-19.1h-0.8c-10.7,0-20.7,6.3-27.3,11.6c-6.6,5.3-13.6,13.3-18.3,20.7
	c-6.7,10.8-21,38.3-7,60.2c5.6,8.8,14.9,13.2,27.7,13.2c8.9,0,19.5-2.2,31.3-6.6c17.8-6.5,31.8-15.4,45.4-24.1l3.7-2.3
	c14.4-9.1,28.4-19.7,42.8-32.4c31.9-28.1,51.1-55.6,62-89.2C515.5,143.6,521.8,117.1,514,92.3"/>
<text transform="matrix(1 0 0 1 164.6523 680.0455)" class="st1 st2 st3">money</text>
</svg>
